<?xml version="1.0" encoding="UTF-8"?>
<svg id="Layer_1" data-name="Layer 1" xmlns="http://www.w3.org/2000/svg" viewBox="0 0 1920 1080">
  <defs>
    <style>
      .cls-1, .cls-2 {
        stroke-width: 0px;
      }

      .cls-2 {
        fill: #cdb535;
      }
    </style>
  </defs>
  <path class="cls-2" d="m0,0v1080.01h1920V0H0Zm1126.03,608.77l88.12,185.38-185.38-88.12-68.77,193.39-68.77-193.39-185.38,88.12,88.12-185.38-193.39-68.77,193.39-68.77-88.12-185.38,185.38,88.12,68.77-193.39,68.77,193.39,185.38-88.12-88.12,185.38,193.39,68.77-193.39,68.77Z"/>
  <path class="cls-1" d="m1497.75,540l-289.34-102.89,131.84-277.36-277.36,131.84L960,2.25l-102.89,289.34-277.36-131.84,131.84,277.36-289.34,102.89,289.34,102.89-131.84,277.36,277.36-131.84,102.89,289.34,102.89-289.34,277.36,131.84-131.84-277.36,289.34-102.89Zm-283.6,254.15l-185.38-88.12-68.77,193.39-68.77-193.39-185.38,88.12,88.12-185.38-193.39-68.77,193.39-68.77-88.12-185.38,185.38,88.12,68.77-193.39,68.77,193.39,185.38-88.12-88.12,185.38,193.39,68.77-193.39,68.77,88.12,185.38Z"/>
</svg>